<svg xmlns="http://www.w3.org/2000/svg" width="81" height="80" viewBox="0 0 81 80">
    <g fill="none" fill-rule="evenodd">
        <path fill="#F8B6CD" d="M1.5 21.798l50.39 1.598-.968-13.008L0 9.424z"/>
        <g stroke="#13120D" stroke-width=".5">
            <path d="M2.278 10.842l48.11.622L50.12 32H31.1v15.646l-29.293-.379.47-36.425zM16.723 7.159l-.098 7.598m19.22-7.35l-.098 7.597"/>
        </g>
        <path fill="#FFD250" d="M30.5 42.798l50.39 1.598-.968-13.008L29 30.424z"/>
        <g stroke="#13120D" stroke-width=".5">
            <path d="M78.916 68.89l-48.11-.623.472-36.425 48.11.622zM45.723 28.159l-.098 7.598m19.22-7.35l-.098 7.597"/>
        </g>
        <g fill="#0BDBF6">
            <path d="M42.815 8.37l8.124 17.174 5.15-2.435-8.126-17.175z"/>
            <path d="M59.943.06L42.826 8.303l2.472 5.131L62.414 5.19z"/>
            <path d="M49.659 13.71c2.274.252 4.547.873 6.735 1.896C66.548 20.35 71.251 32.02 67.508 42.36l5.41 1.95c4.743-13.105-1.218-27.899-14.09-33.914a27.129 27.129 0 0 0-11.87-2.564l2.7 5.878zM38.187 71.153l-8.125-17.174-5.148 2.435 8.125 17.175z"/>
            <path d="M21.059 79.464l17.116-8.245-2.471-5.131-17.117 8.245z"/>
            <path d="M31.343 65.813a21.455 21.455 0 0 1-6.735-1.896C14.454 59.172 9.75 47.502 13.493 37.163l-5.409-1.95c-4.744 13.105 1.218 27.9 14.09 33.914a27.127 27.127 0 0 0 11.87 2.564l-2.701-5.878z"/>
        </g>
    </g>
</svg>
