<svg xmlns="http://www.w3.org/2000/svg" width="68" height="78" viewBox="0 0 68 78">
    <g fill="none" fill-rule="evenodd">
        <path stroke="#13120D" stroke-width=".63" d="M52.634 51.7c-.127 4.58.187 9.086-.232 13.697H1.052v-33.64c1.992 0 4.087 0 6.04-.033M52.568 31.571c.06 1.34.06 2.701 0 4.11"/>
        <path stroke="#13120D" stroke-linejoin="bevel" stroke-width=".63" d="M49.426 33.774c1.071-.643 2.017-1.484 3.135-2.05-.254 0-.513-.01-.767.009.248.017.522.03.767-.009a168.53 168.53 0 0 1-4.93.013M1.21 32.028a2641.19 2641.19 0 0 1 8.496 6.788c2.824 2.265 5.648 4.53 8.477 6.787a1584.207 1584.207 0 0 0 5.465 4.34c.334.264.46.39.92.138.782-.428 1.622-1.067 2.305-1.501 3.067-1.951 5.87-3.814 8.902-5.82a327.603 327.603 0 0 1 4.595-2.994c1.518-.967 2.928-2.097 4.453-3.062.362-.229.725-.455 1.089-.681"/>
        <path stroke="#13120D" stroke-linejoin="bevel" stroke-width=".63" d="M7.094 36.713a5103.19 5103.19 0 0 0-.01-35.649c.289 0 0 .015 0 0 9.583-.012 19.014-.012 28.55-.012 3.354 3.04 6.393 6.183 9.747 9.327.419.315.733.734 1.257 1.048.315 6.393 0 12.89.119 19.303"/>
        <path stroke="#13120D" stroke-linejoin="bevel" stroke-width=".63" d="M35.743 1.064v11.05h11.014M10.106 10.56h10.828M10.106 7.549h8.149M22.571 10.56h.558"/>
        <path fill="#5CE8AD" d="M11.705 32.173l12.133 9.652 4.623-5.365-12.135-9.653z"/>
        <path fill="#5CE8AD" d="M36.694 16.449L18.44 37.184l5.365 4.622L42.059 21.07z"/>
        <path fill="#0BDBF6" d="M47.503 74.755h-2.957l2.957-24.446 10.383 1.137 6.557 23.31H60.92l-7.883-17.624z"/>
        <path fill="#FFD250" d="M61.612 24.413a2.151 2.151 0 1 0-4.21.885 2.151 2.151 0 0 0 4.21-.885"/>
        <path fill="#FFD250" d="M63.816 24.433s2.218.871 2.304 2.68c.087 1.808-1.119 3.271.517 4.477 1.636 1.205 2.066 5.424 0 6.63-2.067 1.205-4.994.947-4.994-2.153s-1.203-4.548-1.505-5.89c-.8-3.54-.074-5.906 2.283-5.906l1.395.162z"/>
        <path stroke="#1D1D1B" stroke-width=".63" d="M48.016 48.368l.37-9.9s-8.256-7.706-6.734-16.885M44.147 22.542s-.786 7.364 7.092 12.539l6.54 2.249M57.759 47.559l2.346-6.535 4.925 5.006-4.569 4.059M53.036 55.691l6.974 16.525M48.185 51.446l7.577.759M47.243 77.049l-1.137-1.592-5.155 1.592M60.596 77.302l1.43-.834 5.48.417M56.594 28.423L54.759 30.9l.452.68"/>
    </g>
</svg>
