<svg xmlns="http://www.w3.org/2000/svg" width="120" height="120" viewBox="0 0 120 120">
    <g fill="none" fill-rule="evenodd">
        <g>
            <path fill="#FFD250" d="M36.614 20.781L22.374.064S.784 17.477.05 18.494C-.685 19.51 10.339 34 10.339 34l26.275-13.219z" transform="translate(17 7) translate(52 76)"/>
            <path stroke="#231F20" d="M7.411 24.035c-.895 0-1.62-.719-1.62-1.606 0-.887.725-1.607 1.62-1.607.895 0 1.62.72 1.62 1.607s-.725 1.606-1.62 1.606zM10.071 28.403c-.895 0-1.62-.72-1.62-1.606 0-.887.725-1.607 1.62-1.607.895 0 1.62.72 1.62 1.607s-.725 1.606-1.62 1.606z" transform="translate(17 7) translate(52 76)"/>
        </g>
        <path fill="#5CE8AD" d="M38 64.277L26 65 26 33.085 38 32z" transform="translate(17 7)"/>
        <path fill="#0BDBF6" d="M48 47.299L40 48 40 17.052 48 16z" transform="translate(17 7)"/>
        <path stroke="#231F20" d="M19 12L60 12M23 66L60 66M36 6L44 6M38 71L41 71M26 22L49 22M52 29L30 29M26 34L49 34M52 41L31 41" transform="translate(17 7)"/>
        <g stroke="#231F20">
            <path d="M16.786 45.658c2.277 1.526 5.285 1.043 6.717-1.079l.211-.313c1.433-2.122.748-5.08-1.53-6.606l-7.138-4.785c-2.277-1.527-5.284-1.044-6.717 1.078l-.21.313c-1.433 2.123-.748 5.08 1.529 6.607l7.138 4.785zM16.786 57.36c2.277 1.527 5.285 1.044 6.717-1.079l.211-.312c1.433-2.123.748-5.08-1.53-6.607l-7.138-4.785c-2.277-1.527-5.284-1.044-6.717 1.079l-.21.312c-1.433 2.123-.748 5.08 1.529 6.607l7.138 4.785z" transform="translate(17 7)"/>
            <path d="M15.647 68.125c2.277 1.526 5.284 1.043 6.717-1.08l.21-.312c1.433-2.122.748-5.08-1.529-6.606l-7.138-4.785c-2.277-1.527-5.285-1.044-6.717 1.078l-.211.313c-1.433 2.122-.748 5.08 1.53 6.607l7.138 4.785zM19.555 24.193l-11.822-7.37c-2.277-1.526-5.285-1.043-6.717 1.08l-.211.312c-1.433 2.122-.748 5.08 1.53 6.607l18.89 12.22M65.614 38.453c3.725 5.233 5.338 29.24 6.013 33.667l-14.53 14.595M65.614 38.453l-.275-.416c-1.868-2.823-5.24-3.89-7.53-2.384l-7.182 4.72c-2.291 1.506-2.634 5.014-.767 7.837l.275.415c1.868 2.823 5.239 3.89 7.53 2.384l3.966-2.607" transform="translate(17 7)"/>
            <path d="M19.555 68.91v4.38c0 1.424 1.158 2.578 2.586 2.578h35.065c1.429 0 2.587-1.154 2.587-2.577V49.58M59.793 35.156V2.59c0-1.424-1.158-2.578-2.587-2.578H22.141c-1.428 0-2.586 1.154-2.586 2.578V35.455M27.296 75.868s6.862 6.6 9.112 7.272" transform="translate(17 7)"/>
        </g>
    </g>
</svg>
