<svg xmlns="http://www.w3.org/2000/svg" width="120" height="120" viewBox="0 0 120 120">
    <g fill="none" fill-rule="evenodd">
        <path fill="#FFD250" d="M59.956 40S71.024 33.606 73 30l-24 2.029S58.904 39.884 59.956 40M45 69L61.775 49 67.55 56.641 72.5 59.315 78 69z" transform="translate(16)"/>
        <path stroke="#000" d="M38 11V7.338s.692-1.913 2.354-2.207c1.661-.295 39.877 0 39.877 0s1.523.685 1.938 1.245C82.584 6.936 83 11 83 11H38zM38 69v3.662s.692 1.913 2.354 2.207c1.661.295 39.877 0 39.877 0s1.523-.685 1.938-1.245C82.584 73.064 83 69 83 69H38zM79.89 11s2.748 15.988-19.322 29.292C38.498 53.596 41.094 69 41.094 69" transform="translate(16)"/>
        <path stroke="#000" d="M41.11 11s-2.748 15.988 19.322 29.292C82.502 53.596 79.906 69 79.906 69M74 21s-2.857 8.854-11 11M42 1L63 1" transform="translate(16)"/>
        <path fill="#0BDBF6" d="M12.692 83L8 117 11.109 117 20.051 91.261 25.353 100.953 27.093 117 32 117 30.892 97.14 25.827 83z" transform="translate(16)"/>
        <path stroke="#000" d="M28 121L29.626 119 37 121M25.348 82L24.877 68.166 38 46.12 34.544 46.12 20.165 65.179 12.224 62.741 2.648 42.257 1 42M0 40L12 79M19.974 82L20.026 87M12 120L7 120" transform="translate(16)"/>
        <path stroke="#000" d="M18 57L19 61 18 61M38.419 45.973L40 43 38.846 43.118 38.077 44.487 35.88 44.5 35 46" transform="translate(16)"/>
        <path fill="#F6B2CA" d="M16 52c0 1.657 1.343 3 3 3s3-1.343 3-3-1.343-3-3-3-3 1.343-3 3" transform="translate(16)"/>
        <path fill="#F6B2CA" d="M13 52.5c0 1.381 1.12 2.5 2.5 2.5s2.5-1.119 2.5-2.5c0-1.38-1.12-2.5-2.5-2.5S13 51.12 13 52.5" transform="translate(16)"/>
        <path fill="#F6B2CA" d="M11 54c0 1.105.896 2 2 2 1.105 0 2-.895 2-2s-.895-2-2-2c-1.104 0-2 .895-2 2" transform="translate(16)"/>
    </g>
</svg>
