<svg xmlns="http://www.w3.org/2000/svg" xmlns:xlink="http://www.w3.org/1999/xlink" width="62" height="91" viewBox="0 0 62 91">
    <defs>
        <path id="a" d="M0 89.504h60.85V0H0z"/>
    </defs>
    <g fill="none" fill-rule="evenodd" transform="translate(0 1)">
        <path stroke="#13120D" stroke-width=".5" d="M10.691 89.452l-.96-1.345-4.357 1.345M19.468 26.157V7.03a3.765 3.765 0 0 1 3.409-3.748L56.674.072a3.765 3.765 0 0 1 4.12 3.831L59.143 79a3.765 3.765 0 0 1-3.765 3.682H23.233c-.459 0-.898-.082-1.304-.232"/>
        <mask id="b" fill="#fff">
            <use xlink:href="#a"/>
        </mask>
        <path stroke="#13120D" stroke-width=".5" d="M.787 46.356h32.292V27.631H.787zM23.12 47.264l-3.651 8.169h-4.325L9.57 47.745H7.456l4.805 9.514-.288 8.457M24.946 47.264l-4.68 16.53" mask="url(#b)"/>
        <path fill="#0BDBF6" d="M19.757 66.773l2.849 20.566h-1.888l-5.43-15.569-3.22 5.862-1.056 9.707h-2.98l.673-12.013 3.075-8.553z" mask="url(#b)"/>
        <path stroke="#13120D" stroke-width=".5" d="M15.319 66.1l-.031 2.883M20.266 88.779h2.855M16.777 50.503L16.2 53.13h.576" mask="url(#b)"/>
        <path fill="#0BDBF6" d="M15.645 49.524a1.921 1.921 0 1 1-.001-3.842 1.921 1.921 0 0 1 0 3.842z" mask="url(#b)"/>
        <path fill="#0BDBF6" d="M17.87 49.668a1.526 1.526 0 1 1 0-3.052 1.526 1.526 0 0 1 0 3.052z" mask="url(#b)"/>
        <path fill="#0BDBF6" d="M19.295 50.305a1.13 1.13 0 1 1 0-2.26 1.13 1.13 0 0 1 0 2.26z" mask="url(#b)"/>
        <path stroke="#13120D" stroke-width=".5" d="M56.883 4.31a1.217 1.217 0 1 1-2.434 0 1.217 1.217 0 0 1 2.434 0zM41.782 76.247a3.319 3.319 0 1 1-6.638 0 3.319 3.319 0 0 1 6.638 0zM53.497 4.31a1.217 1.217 0 1 1-2.435 0 1.217 1.217 0 0 1 2.435 0zM24.946 19.113l29.503-2.246M53.497 26.67l-18.353.961M54.449 35.169l-19.305 1.303M53.497 44.498l-18.353 1.183M54.449 54.539L25.81 56.317M25.81 67.542l27.687-.769" mask="url(#b)"/>
        <g fill="#FED151" mask="url(#b)">
            <path d="M29.42 39.337a.214.214 0 0 1-.13-.043l-1.103-.817-1.102.804a.22.22 0 0 1-.337-.249l.42-1.271-1.099-.775a.223.223 0 0 1-.083-.248.22.22 0 0 1 .209-.154h1.363l.422-1.309a.22.22 0 0 1 .417 0l.421 1.309h1.364a.222.222 0 0 1 .126.403l-1.1.772.42 1.288a.222.222 0 0 1-.208.29zM23.567 39.337a.214.214 0 0 1-.13-.043l-1.103-.817-1.103.804a.22.22 0 0 1-.337-.249l.42-1.271-1.099-.775a.223.223 0 0 1-.083-.248.22.22 0 0 1 .21-.154h1.363l.421-1.309a.22.22 0 0 1 .417 0l.421 1.309h1.364a.222.222 0 0 1 .126.403l-1.099.772.42 1.288a.222.222 0 0 1-.208.29zM17.713 39.337a.214.214 0 0 1-.13-.043l-1.103-.817-1.103.804a.22.22 0 0 1-.336-.249l.42-1.271-1.1-.775a.223.223 0 0 1-.083-.248.22.22 0 0 1 .21-.154h1.363l.421-1.309a.22.22 0 0 1 .418 0l.42 1.309h1.364a.222.222 0 0 1 .126.403l-1.098.772.42 1.288a.222.222 0 0 1-.209.29zM11.86 39.337a.214.214 0 0 1-.13-.043l-1.104-.817-1.102.804a.22.22 0 0 1-.337-.249l.42-1.271-1.099-.775a.223.223 0 0 1-.083-.248.22.22 0 0 1 .209-.154h1.363l.422-1.309a.22.22 0 0 1 .417 0l.421 1.309h1.364a.222.222 0 0 1 .126.403l-1.1.772.42 1.288a.222.222 0 0 1-.208.29zM6.006 39.337a.214.214 0 0 1-.13-.043l-1.103-.817-1.103.804a.22.22 0 0 1-.337-.249l.42-1.271-1.098-.775a.223.223 0 0 1-.084-.248.22.22 0 0 1 .21-.154h1.363l.421-1.309a.22.22 0 0 1 .417 0l.421 1.309h1.364a.222.222 0 0 1 .126.403l-1.099.772.42 1.288a.222.222 0 0 1-.208.29z"/>
        </g>
    </g>
</svg>
