<svg xmlns="http://www.w3.org/2000/svg" width="120" height="120" viewBox="0 0 120 120">
    <g fill="none" fill-rule="evenodd">
        <path fill="#FFF" d="M14.007 0L0.035 76.525 4.988 71.451 7.555 77.528 11.395 72.3 14.758 79.036 19.339 73.911 53.675 34.112 57.637 21.51 46.501 5.684z" transform="translate(18 2)"/>
        <path fill="#0BDBF6" d="M22.747 60.65c-.66 3.648-3.918 6.14-7.277 5.563-3.36-.576-5.548-4-4.889-7.647.66-3.648 3.917-6.138 7.277-5.562 3.359.576 5.548 4 4.889 7.647" transform="translate(18 2)"/>
        <path fill="#5CE8AD" d="M6.395 16.968L5.764 27.096 47.642 35.199 48.814 24.634z" transform="translate(18 2)"/>
        <path stroke="#000" d="M56.687 20.926L46.501 5.684 13.841 0.085 0.035 76.525 4.988 71.451 6.935 77.434 11.988 72.651 14.747 78.774 19.339 73.911 22.253 80.061 27.999 75.669 30.737 81.515 35.092 77.136 38.117 82.78 42.379 78.911 45.284 84.009z" transform="translate(18 2)"/>
        <path stroke="#000" stroke-linejoin="bevel" d="M46.501 5.684L44.029 19.358 56.581 21.51M15.163 12.412L27.503 14.527M15.837 8.686L25.123 10.278M29.369 14.847L30.005 14.956M21.573 61.502c-.656 3.627-3.895 6.103-7.236 5.53-3.34-.573-5.517-3.977-4.861-7.604.656-3.628 3.895-6.104 7.236-5.531 3.34.573 5.517 3.977 4.861 7.605z" transform="translate(18 2)"/>
        <path fill="#231F20" stroke="#000" stroke-width=".5" d="M16.473 64.113c-.381.302-.835.441-1.36.418l-.218 1.201-.47-.08.218-1.202c-.352-.093-.675-.253-.969-.479-.293-.225-.54-.484-.74-.778l.37-.387c.472.657 1.018 1.038 1.636 1.144.455.079.827.009 1.116-.209.29-.217.473-.545.552-.982.065-.356.048-.667-.05-.935-.098-.267-.237-.495-.418-.684-.18-.19-.426-.407-.735-.652-.329-.265-.585-.495-.769-.689-.184-.194-.327-.434-.43-.718-.101-.285-.117-.621-.047-1.01.092-.51.317-.916.675-1.217.358-.302.778-.445 1.26-.429l.216-1.202.47.08-.217 1.203c.323.08.59.216.802.406.212.191.406.435.583.732l-.404.32c-.191-.3-.376-.524-.553-.671-.177-.147-.422-.248-.735-.302-.373-.063-.701.011-.986.226-.285.213-.463.519-.534.915-.055.3-.037.562.053.786.09.224.219.42.385.585.166.166.394.362.683.587.344.267.62.508.826.723.207.216.365.489.475.82.109.332.122.724.04 1.178-.102.567-.344 1-.725 1.302" transform="translate(18 2)"/>
        <path stroke="#000" stroke-linejoin="bevel" d="M15.074 23.936L49.53 29.843M13.235 34.112L47.691 40.019M11.395 44.288L45.851 50.195" transform="translate(18 2)"/>
        <path fill="#FFF" d="M52.651 86.959L20.681 84.535 24.176 33.388 58 35.995z" transform="translate(18 2)"/>
        <g>
            <path fill="#FFD250" d="M62.78 72.407L50.062 53.228s-19.284 16.12-19.94 17.061c-.656.942 9.191 14.356 9.191 14.356L62.78 72.407z" transform="translate(18 2) translate(21 33)"/>
            <path stroke="#231F20" d="M37.93 78.478c-1.185 0-2.145-.967-2.145-2.159 0-1.192.96-2.158 2.144-2.158 1.185 0 2.144.966 2.144 2.158s-.96 2.159-2.144 2.159zM36.368 17.74l10.143 12.015s3.73 4.655 3.282 10.76c-.32 4.365-1.484 14.583-1.773 17.103l-.066.57-11.348 7.929M19.662 53.033s.867 10.164 10.57 13.084" transform="translate(18 2) translate(21 33)"/>
            <path fill="#FFD250" d="M7.644 40.588c1.32-.207 2.589.262 3.465 1.15.373-.734.531-1.585.396-2.461-.342-2.206-2.395-3.716-4.586-3.372-2.191.343-3.691 2.41-3.349 4.617.135.876.544 1.639 1.12 2.223.566-1.113 1.633-1.95 2.954-2.157" transform="translate(18 2) translate(21 33)"/>
            <path fill="#0BDBF6" d="M24.603 1.521L32.675 1.242 28.315 53.752 21.05 52.487z" transform="translate(18 2) translate(21 33)"/>
            <path stroke="#231F20" d="M.063 48.301L3.666 2.657c.122-1.54 1.46-2.688 2.99-2.566L34.08 2.338c1.473.118 2.597 1.377 2.556 2.865l-2.81 45.655c-.043 1.6-1.41 2.838-2.996 2.71L2.612 51.31c-1.53-.122-2.67-1.469-2.549-3.009z" transform="translate(18 2) translate(21 33)"/>
            <path stroke="#231F20" d="M21.777 52.7L25.811 1.592 31.094 2.014 27.06 53.122zM7.304 40.403c1.16.093 2.14.748 2.703 1.676.462-.544.767-1.233.827-2.002.154-1.937-1.282-3.632-3.205-3.785-1.923-.154-3.607 1.29-3.76 3.228-.06.768.132 1.497.503 2.109.703-.827 1.772-1.319 2.932-1.226z" transform="translate(18 2) translate(21 33)"/>
            <path stroke="#231F20" d="M10.51 44.188c.06-.769-.132-1.497-.503-2.108-.702.827-1.772 1.317-2.932 1.225-1.16-.093-2.14-.748-2.703-1.677-.462.545-.767 1.234-.827 2.003-.153 1.937 1.282 3.631 3.205 3.785 1.924.154 3.607-1.29 3.76-3.228zM16.123 5.224l5.238 2.007-4.716.876 2.67 1.885-1.874 1.688 1.533 2.63-1.72.53 1.54 2.546-5.607-.448 5.529 1.444s-2.88 4.946-.6 7.596M20.431 4.567L20.181 22.176" transform="translate(18 2) translate(21 33)"/>
            <path fill="#FFD250" d="M6.593 21.444L8.029 3.252 7.339 3.197 5.904 21.389zM5.668 12.766L6.801 3.199 6.115 3.117 4.982 12.684z" transform="translate(18 2) translate(21 33)"/>
            <path fill="#FFF" d="M33.415 59.303C26.301 54.52 28.69 45.07 28.69 45.07L18.434 34.123c-2.112-2.323-2.074-5.818.084-7.806l.318-.293c2.158-1.988 5.62-1.717 7.73.607l15.059 15.781-8.21 16.89z" transform="translate(18 2) translate(21 33)"/>
            <path stroke="#231F20" d="M41.625 42.412L26.567 26.631c-2.112-2.324-5.573-2.595-7.73-.607l-.319.293c-2.158 1.988-2.196 5.483-.084 7.806L28.69 45.07s-2.389 9.45 4.725 14.233" transform="translate(18 2) translate(21 33)"/>
        </g>
    </g>
</svg>
