<svg xmlns="http://www.w3.org/2000/svg" xmlns:xlink="http://www.w3.org/1999/xlink" width="120" height="120" viewBox="0 0 120 120">
    <defs>
        <path id="prefix__a" d="M56.432.088C33.693.088 0 .34 0 .34v116.712L72.848 120l3.764-21.59C65.203 95.108 56.86 84.568 56.86 72.073c0-11.743 7.37-21.76 17.73-25.664l-.39-5.078-13.135 7.197.142-5.282 3.405-3.849 4.096-.775 4.669 1.83L79 27.023S77.328.908 76.748.34C76.556.152 68.043.088 56.75.088h-.32z"/>
        <path id="prefix__c" d="M56.432.088C33.693.088 0 .34 0 .34v116.712L72.848 120l3.764-21.59C65.203 95.108 56.86 84.568 56.86 72.073c0-11.743 7.37-21.76 17.73-25.664l-.39-5.078-13.135 7.197.142-5.282 3.405-3.849 4.096-.775 4.669 1.83L79 27.023S77.328.908 76.748.34C76.556.152 68.043.088 56.75.088"/>
        <path id="prefix__e" d="M56.432.088C33.693.088 0 .34 0 .34v116.712L72.848 120l3.764-21.59C65.203 95.108 56.86 84.568 56.86 72.073c0-11.743 7.37-21.76 17.73-25.664l-.39-5.078-13.135 7.197.142-5.282 3.405-3.849 4.096-.775 4.669 1.83L79 27.023S77.328.908 76.748.34C76.556.152 68.043.088 56.75.088"/>
        <path id="prefix__g" d="M56.432.088C33.693.088 0 .34 0 .34v116.712L72.848 120l3.764-21.59C65.203 95.108 56.86 84.568 56.86 72.073c0-11.743 7.37-21.76 17.73-25.664l-.39-5.078-13.135 7.197.142-5.282 3.405-3.849 4.096-.775 4.669 1.83L79 27.023S77.328.908 76.748.34C76.556.152 68.043.088 56.75.088"/>
        <path id="prefix__i" d="M56.432.088C33.693.088 0 .34 0 .34v116.712L72.848 120l3.764-21.59C65.203 95.108 56.86 84.568 56.86 72.073c0-11.743 7.37-21.76 17.73-25.664l-.39-5.078-13.135 7.197.142-5.282 3.405-3.849 4.096-.775 4.669 1.83L79 27.023S77.328.908 76.748.34C76.556.152 68.043.088 56.75.088"/>
        <path id="prefix__k" d="M56.432.088C33.693.088 0 .34 0 .34v116.712L72.848 120l3.764-21.59C65.203 95.108 56.86 84.568 56.86 72.073c0-11.743 7.37-21.76 17.73-25.664l-.39-5.078-13.135 7.197.142-5.282 3.405-3.849 4.096-.775 4.669 1.83L79 27.023S77.328.908 76.748.34C76.556.152 68.043.088 56.75.088"/>
        <path id="prefix__m" d="M56.432.088C33.693.088 0 .34 0 .34v116.712L72.848 120l3.764-21.59C65.203 95.108 56.86 84.568 56.86 72.073c0-11.743 7.37-21.76 17.73-25.664l-.39-5.078-13.135 7.197.142-5.282 3.405-3.849 4.096-.775 4.669 1.83L79 27.023S77.328.908 76.748.34C76.556.152 68.043.088 56.75.088"/>
        <path id="prefix__o" d="M56.432.088C33.693.088 0 .34 0 .34v116.712L72.848 120l3.764-21.59C65.203 95.108 56.86 84.568 56.86 72.073c0-11.743 7.37-21.76 17.73-25.664l-.39-5.078-13.135 7.197.142-5.282 3.405-3.849 4.096-.775 4.669 1.83L79 27.023S77.328.908 76.748.34C76.556.152 68.043.088 56.75.088"/>
        <path id="prefix__q" d="M56.432.088C33.693.088 0 .34 0 .34v116.712L72.848 120l3.764-21.59C65.203 95.108 56.86 84.568 56.86 72.073c0-11.743 7.37-21.76 17.73-25.664l-.39-5.078-13.135 7.197.142-5.282 3.405-3.849 4.096-.775 4.669 1.83L79 27.023S77.328.908 76.748.34C76.556.152 68.043.088 56.75.088"/>
        <path id="prefix__s" d="M56.432.088C33.693.088 0 .34 0 .34v116.712L72.848 120l3.764-21.59C65.203 95.108 56.86 84.568 56.86 72.073c0-11.743 7.37-21.76 17.73-25.664l-.39-5.078-13.135 7.197.142-5.282 3.405-3.849 4.096-.775 4.669 1.83L79 27.023S77.328.908 76.748.34C76.556.152 68.043.088 56.75.088"/>
        <path id="prefix__u" d="M56.432.088C33.693.088 0 .34 0 .34v116.712L72.848 120l3.764-21.59C65.203 95.108 56.86 84.568 56.86 72.073c0-11.743 7.37-21.76 17.73-25.664l-.39-5.078-13.135 7.197.142-5.282 3.405-3.849 4.096-.775 4.669 1.83L79 27.023S77.328.908 76.748.34C76.556.152 68.043.088 56.75.088"/>
        <path id="prefix__w" d="M56.432.088C33.693.088 0 .34 0 .34v116.712L72.848 120l3.764-21.59C65.203 95.108 56.86 84.568 56.86 72.073c0-11.743 7.37-21.76 17.73-25.664l-.39-5.078-13.135 7.197.142-5.282 3.405-3.849 4.096-.775 4.669 1.83L79 27.023S77.328.908 76.748.34C76.556.152 68.043.088 56.75.088"/>
        <path id="prefix__y" d="M56.432.088C33.693.088 0 .34 0 .34v116.712L72.848 120l3.764-21.59C65.203 95.108 56.86 84.568 56.86 72.073c0-11.743 7.37-21.76 17.73-25.664l-.39-5.078-13.135 7.197.142-5.282 3.405-3.849 4.096-.775 4.669 1.83L79 27.023S77.328.908 76.748.34C76.556.152 68.043.088 56.75.088"/>
        <path id="prefix__A" d="M56.432.088C33.693.088 0 .34 0 .34v116.712L72.848 120l3.764-21.59C65.203 95.108 56.86 84.568 56.86 72.073c0-11.743 7.37-21.76 17.73-25.664l-.39-5.078-13.135 7.197.142-5.282 3.405-3.849 4.096-.775 4.669 1.83L79 27.023S77.328.908 76.748.34C76.556.152 68.043.088 56.75.088"/>
        <path id="prefix__C" d="M56.432.088C33.693.088 0 .34 0 .34v116.712L72.848 120l3.764-21.59C65.203 95.108 56.86 84.568 56.86 72.073c0-11.743 7.37-21.76 17.73-25.664l-.39-5.078-13.135 7.197.142-5.282 3.405-3.849 4.096-.775 4.669 1.83L79 27.023S77.328.908 76.748.34C76.556.152 68.043.088 56.75.088"/>
    </defs>
    <g fill="none" fill-rule="evenodd" transform="translate(3 2)">
        <mask id="prefix__b" fill="#fff">
            <use xlink:href="#prefix__a"/>
        </mask>
        <path fill="#F6B2CA" d="M2.481 7.473L4.575 24.786 74.947 27.023 73.594 8.822z" mask="url(#prefix__b)"/>
        <mask id="prefix__d" fill="#fff">
            <use xlink:href="#prefix__c"/>
        </mask>
        <path stroke="#000" d="M25.835 4.304l-.137 10.63M52.54 4.65l-.137 10.631" mask="url(#prefix__d)"/>
        <mask id="prefix__f" fill="#fff">
            <use xlink:href="#prefix__e"/>
        </mask>
        <path stroke="#000" d="M5.435 33.112L72.624 33.112" mask="url(#prefix__f)"/>
        <mask id="prefix__h" fill="#fff">
            <use xlink:href="#prefix__g"/>
        </mask>
        <path stroke="#000" d="M5.334 41.487L72.445 41.487" mask="url(#prefix__h)"/>
        <mask id="prefix__j" fill="#fff">
            <use xlink:href="#prefix__i"/>
        </mask>
        <path stroke="#000" d="M29.928 49.862L72.445 49.862" mask="url(#prefix__j)"/>
        <g>
            <mask id="prefix__l" fill="#fff">
                <use xlink:href="#prefix__k"/>
            </mask>
            <path stroke="#000" d="M5.334 49.862L29.928 49.862" mask="url(#prefix__l)"/>
        </g>
        <g>
            <mask id="prefix__n" fill="#fff">
                <use xlink:href="#prefix__m"/>
            </mask>
            <path stroke="#000" d="M29.523 58.237L72.271 58.237" mask="url(#prefix__n)"/>
        </g>
        <g>
            <mask id="prefix__p" fill="#fff">
                <use xlink:href="#prefix__o"/>
            </mask>
            <path stroke="#000" d="M5.146 58.237L29.523 58.237" mask="url(#prefix__p)"/>
        </g>
        <g>
            <mask id="prefix__r" fill="#fff">
                <use xlink:href="#prefix__q"/>
            </mask>
            <path stroke="#000" d="M53.134 33.112L53.134 66.213" mask="url(#prefix__r)"/>
        </g>
        <g>
            <mask id="prefix__t" fill="#fff">
                <use xlink:href="#prefix__s"/>
            </mask>
            <path stroke="#000" d="M63.011 33.112L63.011 66.213" mask="url(#prefix__t)"/>
        </g>
        <g>
            <mask id="prefix__v" fill="#fff">
                <use xlink:href="#prefix__u"/>
            </mask>
            <path stroke="#000" d="M43.256 33.112L43.256 66.213" mask="url(#prefix__v)"/>
        </g>
        <g>
            <mask id="prefix__x" fill="#fff">
                <use xlink:href="#prefix__w"/>
            </mask>
            <path stroke="#000" d="M33.38 33.112L33.38 66.213" mask="url(#prefix__x)"/>
        </g>
        <g>
            <mask id="prefix__z" fill="#fff">
                <use xlink:href="#prefix__y"/>
            </mask>
            <path stroke="#000" d="M23.502 33.112L23.502 66.412" mask="url(#prefix__z)"/>
        </g>
        <g>
            <mask id="prefix__B" fill="#fff">
                <use xlink:href="#prefix__A"/>
            </mask>
            <path stroke="#000" d="M13.625 33.112L13.625 66.412" mask="url(#prefix__B)"/>
        </g>
        <g>
            <mask id="prefix__D" fill="#fff">
                <use xlink:href="#prefix__C"/>
            </mask>
            <path stroke="#000" d="M14.509 66.412L72.19 66.412 72.848 10.412 5.662 9.48 5.146 66.412 14.707 66.412" mask="url(#prefix__D)"/>
        </g>
        <g>
            <path fill="#FFD250" d="M49.126 2.914C46.862.081 42.812-.808 39.511.988c-3.301 1.797-4.733 5.669-3.558 9.095l13.173-7.169zM83.18 9.931c1.03-3.472-.564-7.281-3.939-8.938C75.867-.663 71.86.396 69.716 3.32l13.465 6.61z" transform="translate(23 38)"/>
            <path fill="#0BDBF6" d="M83.056 31.24c0 12.412-10.112 22.473-22.585 22.473-12.477 0-22.587-10.061-22.587-22.473 0-12.41 10.11-22.472 22.587-22.472 12.473 0 22.585 10.062 22.585 22.472" transform="translate(23 38)"/>
            <path stroke="#000" d="M74.893 45.073L60.787 33.785 60.787 20.137M47.343 57.342L41.824 67.261M47.007 10.624L44.237 6.903M51.13 3.163C48.865.33 44.816-.56 41.514 1.236c-3.3 1.797-4.732 5.67-3.557 9.096l13.173-7.17zM75.709 57.189L81.013 67.261M76.124 10.631L78.601 6.903M71.707 3.163C73.972.33 78.021-.56 81.323 1.236c3.301 1.797 4.732 5.67 3.558 9.096l-13.174-7.17z" transform="translate(23 38)"/>
            <path stroke="#000" d="M60.787 10.798c12.76 0 23.102 10.292 23.102 22.987 0 12.695-10.343 22.986-23.102 22.986" transform="translate(23 38)"/>
            <path stroke="#000" d="M33.74 33.785c0 15.08 12.285 27.303 27.44 27.303 15.154 0 27.44-12.224 27.44-27.303 0-15.08-12.286-27.303-27.44-27.303-15.155 0-27.44 12.223-27.44 27.303zM13.405 44.073L.033 43.537M21.885 52.943L5.167 59.158M25.59 61.479L18.218 72.613" transform="translate(23 38)"/>
        </g>
    </g>
</svg>
