<svg xmlns="http://www.w3.org/2000/svg" xmlns:xlink="http://www.w3.org/1999/xlink" width="120" height="120" viewBox="0 0 120 120">
    <defs>
        <path id="prefix__a" d="M0 0.052L15.627 0.052 15.627 24.845 0 24.845z"/>
        <path id="prefix__c" d="M2.84.781c-.064.064-.128.13-.192.197C1.372 2.31-.117 4.383.079 6.683c0 0 1.686-2.065 4.32-2.309 1.635-.151 3.635.4 5.823 2.582 0 0 1.464-2.63.165-4.576-.134-.2-.297-.394-.495-.577C8.907.892 7.59.32 6.332.106 5.956.042 5.583.009 5.226.009c-.998 0-1.87.254-2.385.772"/>
        <path id="prefix__e" d="M0.062 0.015L7.201 0.015 7.201 7.093 0.062 7.093z"/>
    </defs>
    <g fill="none" fill-rule="evenodd">
        <g>
            <path stroke="#000" d="M23.847 22.049c0 5.322-4.292 9.636-9.587 9.636s-9.587-4.314-9.587-9.636c0-5.322 4.292-9.636 9.587-9.636" transform="translate(14) translate(0 5)"/>
            <path fill="#0BDBF6" d="M12.8 17.666c0 1.735 1.4 3.14 3.124 3.14 1.726 0 3.124-1.405 3.124-3.14 0-1.734-1.398-3.14-3.124-3.14-1.725 0-3.124 1.406-3.124 3.14" transform="translate(14) translate(0 5)"/>
            <path fill="#FFD250" d="M9.824 18.547c0 1.379 1.111 2.495 2.482 2.495 1.37 0 2.482-1.116 2.482-2.495 0-1.377-1.111-2.495-2.482-2.495-1.371 0-2.482 1.118-2.482 2.495" transform="translate(14) translate(0 5)"/>
            <path fill="#FFD250" d="M8.152 20.235c0 1.02.823 1.847 1.837 1.847 1.015 0 1.838-.827 1.838-1.847s-.823-1.846-1.838-1.846c-1.014 0-1.837.826-1.837 1.846" transform="translate(14) translate(0 5)"/>
            <path stroke="#000" d="M14.084 22.406L15.019 26.7 14.084 26.7" transform="translate(14) translate(0 5)"/>
            <g transform="translate(14) translate(0 5) translate(0 13.154)">
                <mask id="prefix__b" fill="#fff">
                    <use xlink:href="#prefix__a"/>
                </mask>
                <path fill="#0BDBF6" d="M13.796 1.372s3.425 2.41.905 6.284c-1.69 2.596-4.32 4.03-2.836 7.176 1.484 3.147-1.274 9.864-5.349 10.007-4.075.144-8.263-2.62-5.763-7.298C3.254 12.862 2.616 9.7 3.245 7.43c.628-2.273 6.26-9.61 9.936-6.71l.615.651z" mask="url(#prefix__b)"/>
            </g>
            <path stroke="#000" d="M42.609 9.89c0-5.322-4.292-9.636-9.587-9.636s-9.587 4.314-9.587 9.636c0 5.322 4.292 9.637 9.587 9.637M55.434 19.333c-5.295 0-9.587-4.314-9.587-9.636 0-5.322 4.292-9.637 9.587-9.637 5.294 0 9.587 4.315 9.587 9.637M84.66 22.348c0 5.322-4.292 9.637-9.587 9.637s-9.587-4.315-9.587-9.637 4.292-9.636 9.587-9.636" transform="translate(14) translate(0 5)"/>
            <path stroke="#000" d="M32.05 8.965L32.306 13.583 32.939 13.583" transform="translate(14) translate(0 5)"/>
        </g>
        <g transform="translate(14) translate(28 4)">
            <mask id="prefix__d" fill="#fff">
                <use xlink:href="#prefix__c"/>
            </mask>
            <path d="M2.84.781c-.064.064-.128.13-.192.197C1.372 2.31-.117 4.383.079 6.683c0 0 1.686-2.065 4.32-2.309 1.635-.151 3.635.4 5.823 2.582 0 0 1.464-2.63.165-4.576-.134-.2-.297-.394-.495-.577C8.907.892 7.59.32 6.332.106 5.956.042 5.583.009 5.226.009c-.998 0-1.87.254-2.385.772" mask="url(#prefix__d)"/>
        </g>
        <g>
            <path fill="#FFD250" d="M13.813 1.938c-.876-.733-2.185-.623-2.925.245-.738.869-.627 2.167.248 2.9.876.733 2.185.623 2.924-.245.74-.869.628-2.167-.247-2.9" transform="translate(14) translate(20)"/>
            <path stroke="#000" d="M58.546 27.167L58.289 31.751 57.652 31.751" transform="translate(14) translate(20)"/>
            <path fill="#F6B2CA" d="M55.284 20.484s.988 1.564.297 3.01c-.69 1.447-2.319 2.05-1.457 3.719.863 1.67-.557 5.148-2.798 5.164-2.24.017-4.585-1.491-3.277-3.906 1.308-2.415.912-4.08 1.225-5.26.312-1.18 2.803-4.435 4.406-3.581l1.604.854zM63.008 33.235s-1.182-.937-1.21-2.537c-.027-1.6.851-2.877-.282-3.966-1.133-1.09-1.36-4.825.121-5.861 1.482-1.036 3.544-.766 3.488 1.975-.057 2.74.766 4.038.955 5.229.189 1.19-.37 5.215-1.72 5.188l-1.352-.028z" transform="translate(14) translate(20)"/>
            <path fill="#F6B2CA" d="M57.197 23.66c0 1.721-1.408 3.116-3.143 3.116-1.736 0-3.144-1.395-3.144-3.116 0-1.722 1.408-3.117 3.144-3.117 1.735 0 3.143 1.395 3.143 3.117" transform="translate(14) translate(20)"/>
            <path fill="#F6B2CA" d="M61.043 22.145c0 1.368-1.118 2.476-2.497 2.476-1.38 0-2.497-1.108-2.497-2.476 0-1.368 1.118-2.476 2.497-2.476 1.379 0 2.497 1.108 2.497 2.476" transform="translate(14) translate(20)"/>
            <path fill="#F6B2CA" d="M63.08 23.66c0 1.012-.828 1.832-1.849 1.832s-1.849-.82-1.849-1.832c0-1.013.828-1.833 1.849-1.833 1.02 0 1.848.82 1.848 1.833" transform="translate(14) translate(20)"/>
            <path fill="#F6B2CA" d="M53.777 19.5s3.17-.72 4.823-.02c1.651.698 4.732-.276 5.256.835.525 1.11-.93 2.67-.93 2.67h-3.408c-.29 0-3.907.079-4.065 0-.157-.077-2.517.849-2.32.21.197-.638.644-3.694.644-3.694" transform="translate(14) translate(20)"/>
            <path fill="#5CE8AD" d="M36.245 7.653c0 1.722-1.408 3.117-3.143 3.117-1.737 0-3.144-1.395-3.144-3.117 0-1.721 1.407-3.116 3.144-3.116 1.735 0 3.143 1.395 3.143 3.116" transform="translate(14) translate(20)"/>
            <path fill="#5CE8AD" d="M40.09 6.138c0 1.368-1.117 2.476-2.496 2.476-1.38 0-2.498-1.108-2.498-2.476 0-1.367 1.119-2.476 2.498-2.476 1.38 0 2.497 1.11 2.497 2.476" transform="translate(14) translate(20)"/>
            <path fill="#5CE8AD" d="M42.127 7.653c0 1.012-.827 1.833-1.848 1.833-1.021 0-1.85-.82-1.85-1.833 0-1.012.829-1.833 1.85-1.833 1.02 0 1.848.821 1.848 1.833" transform="translate(14) translate(20)"/>
            <g transform="translate(14) translate(20) translate(30.683)">
                <mask id="prefix__f" fill="#fff">
                    <use xlink:href="#prefix__e"/>
                </mask>
                <path fill="#5CE8AD" d="M7.201 3.554c0 1.954-1.598 3.539-3.569 3.539-1.972 0-3.57-1.585-3.57-3.54C.062 1.6 1.66.016 3.632.016c1.971 0 3.57 1.584 3.57 3.539" mask="url(#prefix__f)"/>
            </g>
            <path stroke="#000" d="M37.56 13.536L37.324 17.76 36.736 17.76" transform="translate(14) translate(20)"/>
            <path stroke="#000" stroke-dasharray="20 30" d="M.11 34.025L10.609 47.806M12.845 24.147L17.117 43.401M33.008 23.66L24.327 43.06M48.4 33.774L27.934 48.762" transform="translate(14) translate(20)"/>
            <path fill="#5CE8AD" d="M68.701 115.348l-6.333-25.113s-27.19 9.224-28.268 9.949c-1.078.725 4.384 18.667 4.384 18.667l30.217-3.503z" transform="translate(14) translate(20)"/>
            <path stroke="#000" d="M39.236 108.16c-.866-.317-1.31-1.27-.99-2.13.319-.86 1.28-1.3 2.148-.983.867.317 1.31 1.27.99 2.13-.319.86-1.28 1.3-2.148.983zM40.24 113.334c-.867-.317-1.31-1.27-.99-2.13.319-.86 1.28-1.3 2.147-.983.867.317 1.31 1.27.991 2.13-.32.86-1.28 1.3-2.148.983zM25.654 84.7l-11.78-31.28c-1.034-2.846.304-5.93 2.987-6.887l.396-.141c2.683-.958 5.696.571 6.73 3.416l5.762 15.595s21.046-4.428 26.088 1.77c5.042 6.197 5.042 12.395 5.042 12.395" transform="translate(14) translate(20)"/>
            <path stroke="#000" d="M17.864 72.875s-3.118 3.098-2.368 5.578c.75 2.479 4.251 12.636 4.251 12.636s8.252 7.73 15.128 10.129l26.004-8.056" transform="translate(14) translate(20)"/>
            <path fill="#FFD250" d="M6.226 8.92L8.863 5.874 12.059 5.074 15.903 5.874 18.331 7.399 19.82 9.792 13.268 8.92 8.863 9.792z" transform="translate(14) translate(20)"/>
        </g>
    </g>
</svg>
