<svg xmlns="http://www.w3.org/2000/svg" width="73" height="60" viewBox="0 0 73 60">
    <g fill="none" fill-rule="evenodd">
        <path fill="#FAB4CD" d="M2.093 20.654l70.33 2.23L71.071 4.73 0 3.383z"/>
        <g stroke-width=".571">
            <path stroke="#000" d="M69.638 59.079H2.52L3.18 5.362l67.146.868z"/>
            <path stroke="#13120D" d="M22.632.224l-.139 10.758M49.706.575l-.139 10.758"/>
        </g>
        <path fill="#5CE8AD" d="M8.382 41.935v8.54l12.149-1.448-.507-7.888z"/>
        <path stroke="#231F20" stroke-width=".571" d="M3.299 26.06h67.149M2.913 34.414h67.356M66.195 42.768h3.789M2.913 42.768h42.585M66.195 42.768h3.789M3.01 51.123h45.364M62.653 51.123h7.085M50.969 52.923v6.156M50.969 26.06v8.749M60.84 52.923v6.156M60.84 26.258v6.156"/>
        <g stroke="#231F20" stroke-width=".571">
            <path d="M41.098 26.06v33.019M31.227 26.06v33.019M21.356 26.06v33.218M11.485 26.06v33.218"/>
        </g>
        <path stroke="#231F20" stroke-width=".571" d="M12.796 47.373l1.746 2.166 5.156-5.368"/>
        <path fill="#0BDBF6" d="M68.115 41.757c0 5.985-4.853 10.837-10.838 10.837-5.985 0-10.837-4.852-10.837-10.837 0-5.985 4.852-10.837 10.837-10.837 5.985 0 10.838 4.852 10.838 10.837"/>
        <path stroke="#231F20" stroke-width=".571" d="M65.954 44.083c0 5.648-4.58 10.228-10.228 10.228-5.65 0-10.229-4.58-10.229-10.228 0-5.65 4.58-10.228 10.229-10.228 5.648 0 10.228 4.579 10.228 10.228z"/>
        <path stroke="#231F20" stroke-width=".571" d="M55.725 36.007v8.531h5.09"/>
    </g>
</svg>
