<svg xmlns="http://www.w3.org/2000/svg" xmlns:xlink="http://www.w3.org/1999/xlink" width="120" height="120" viewBox="0 0 120 120">
    <defs>
        <path id="prefix__a" d="M0 74H120V83H0z"/>
    </defs>
    <g fill="none" fill-rule="evenodd">
        <g transform="matrix(1 0 0 -1 2 120)">
            <path stroke="#020303" stroke-linejoin="bevel" d="M89 83L89 107M94 80L94 103M102 83L102 107"/>
            <path fill="#5CE8AD" d="M0 0H116V7H0z"/>
            <circle cx="34.402" cy="82.653" r="4.017" fill="#5CE8AD" fill-rule="nonzero" stroke="#000" stroke-linejoin="round"/>
            <circle cx="24.109" cy="82.653" r="4.017" fill="#FFD250" fill-rule="nonzero" stroke="#000" stroke-linejoin="round"/>
            <circle cx="13.816" cy="82.653" r="4.017" fill="#F6B2CA" fill-rule="nonzero" stroke="#000" stroke-linejoin="round"/>
        </g>
        <g transform="translate(0 28)">
            <path stroke="#000" stroke-width="1.365" d="M113.255.422H6.134c-2.157 0-3.905 2.015-3.905 4.5v61.007c0 2.486 1.748 4.5 3.905 4.5h107.121c2.157 0 3.905-2.014 3.905-4.5V4.922c0-2.485-1.748-4.5-3.905-4.5zM40.783 77.379L78.606 77.379 78.606 70.429 40.783 70.429z"/>
            <mask id="prefix__b" fill="#fff">
                <use xlink:href="#prefix__a"/>
            </mask>
            <path stroke="#000" stroke-width="1.365" d="M30.631 82.864c-1.17 0-2.12-.158-2.12-.352v-4.78c0-.194.95-.353 2.12-.353H88.76c1.17 0 2.118.159 2.118.353v4.78c0 .194-.948.352-2.118.352H30.63z" mask="url(#prefix__b)"/>
            <path stroke="#000" stroke-width="1.365" d="M6.908 30.016L6.908 65.52 108.772 65.52M114.14 82.79c-.69-3.949-4.13-6.947-8.266-6.94-4.135.009-7.562 3.02-8.238 6.972l16.504-.032z"/>
            <path stroke="#020303" stroke-linejoin="bevel" d="M60 23L60 143" transform="rotate(90 60 83)"/>
        </g>
        <g>
            <path fill="#00DCF7" stroke="#00DCF7" stroke-width="1.03" d="M29.328.49c2.73 0 5.447 1.03 7.521 3.08 2.077 2.051 3.115 4.742 3.115 7.432 0 2.69-1.038 5.382-3.115 7.438-2.074 2.05-4.793 3.075-7.513 3.075-2.72 0-5.44-1.025-7.518-3.075-2.076-2.053-3.114-4.743-3.114-7.433 0-2.69 1.038-5.382 3.114-7.438C23.893 1.52 26.61.497 29.328.491zm.006 5.026c-1.422 0-2.844.536-3.929 1.609-1.083 1.07-1.625 2.471-1.625 3.874 0 1.402.542 2.803 1.625 3.873 1.085 1.073 2.507 1.609 3.929 1.609 1.422 0 2.843-.536 3.929-1.609 1.083-1.07 1.625-2.471 1.625-3.873 0-1.403-.542-2.804-1.625-3.874-1.086-1.073-2.507-1.609-3.93-1.609zM50.574.485c2.723.006 5.44 1.029 7.514 3.078 2.076 2.052 3.114 4.743 3.114 7.433 0 2.69-1.038 5.382-3.114 7.438-2.075 2.05-4.794 3.075-7.513 3.075-2.72 0-5.438-1.025-7.512-3.075-2.077-2.052-3.115-4.743-3.115-7.433 0-2.69 1.038-5.382 3.115-7.438 2.074-2.05 4.79-3.072 7.51-3.078zm-.002 5.031c-1.422 0-2.844.536-3.929 1.609-1.083 1.07-1.625 2.471-1.625 3.874 0 1.402.542 2.803 1.625 3.873 1.085 1.073 2.507 1.609 3.93 1.609 1.42 0 2.843-.536 3.928-1.609 1.083-1.07 1.625-2.471 1.625-3.873 0-1.403-.542-2.804-1.625-3.874-1.085-1.073-2.507-1.609-3.929-1.609zM15.185.491H-.54l.074 1.544c.075.953.47 1.786 1.084 2.393.605.599 1.427.981 2.383 1.036l1.032.048h7.862L.489 16.783l.059 1.226c.06.973.443 1.8 1.051 2.404.606.6 1.438.983 2.413 1.045l1.035.048H20.77l-.074-1.545c-.079-.965-.469-1.793-1.078-2.396-.603-.595-1.423-.973-2.387-1.032l-1.034-.048H8.335L19.74 5.208l-.059-1.226c-.045-.967-.43-1.8-1.042-2.404-.612-.604-1.454-.985-2.43-1.033L15.186.49zm66.725 0c-2.37 0-4.511.948-6.066 2.473C74.288 1.434 72.14.491 69.776.491c-1.64 0-3.171.452-4.472 1.237C64.143.793 61.985.318 61.17.548v20.983l1.559-.073c.984-.065 1.831-.448 2.442-1.051.608-.602.987-1.425 1.026-2.39l.048-1.01v-6.998l.048-.99c.036-.66.12-1.25.427-1.775.613-1.04 1.75-1.732 3.055-1.732 1.314.005 2.459.703 3.073 1.745.307.518.39 1.112.421 1.768l.048.99v6.997l.048 1.01c.06.961.448 1.789 1.06 2.393.607.6 1.44.984 2.406 1.043l1.555.073V10.015l.047-.99c.037-.649.12-1.254.427-1.773.613-1.036 1.75-1.734 3.055-1.734 1.305 0 2.448.704 3.061 1.745.302.517.385 1.123.422 1.767l.047.979v6.997l.049 1.01c.06.964.447 1.793 1.06 2.398.607.6 1.44.983 2.408 1.038l1.552.073V9c0-2.351-.964-4.479-2.522-6.019-1.557-1.538-3.708-2.49-6.083-2.49z" transform="translate(15 52)"/>
            <path stroke="#000" d="M29.08-.44c2.705 0 5.398 1.03 7.453 3.086 2.055 2.055 3.083 4.749 3.083 7.444 0 2.695-1.028 5.39-3.083 7.449-2.055 2.055-4.75 3.083-7.444 3.083-2.695 0-5.39-1.028-7.45-3.083-2.055-2.056-3.082-4.75-3.082-7.445 0-2.694 1.027-5.39 3.083-7.448C23.695.59 26.387-.434 29.08-.44zm.006 5.009c-1.411 0-2.823.539-3.9 1.616-1.078 1.078-1.617 2.49-1.617 3.901 0 1.412.539 2.824 1.616 3.901 1.078 1.078 2.49 1.617 3.901 1.617 1.412 0 2.824-.54 3.901-1.617 1.078-1.077 1.617-2.489 1.617-3.9 0-1.413-.539-2.824-1.617-3.902-1.077-1.077-2.489-1.616-3.9-1.616zm21.06-5.015c2.699.006 5.391 1.03 7.446 3.086 2.055 2.055 3.083 4.75 3.083 7.444 0 2.695-1.028 5.39-3.083 7.449-2.055 2.055-4.75 3.083-7.444 3.083s-5.388-1.028-7.443-3.083c-2.056-2.056-3.083-4.75-3.083-7.445 0-2.694 1.027-5.39 3.083-7.448C44.76.584 47.452-.44 50.147-.446zm0 5.015c-1.412 0-2.824.539-3.902 1.616-1.077 1.078-1.616 2.49-1.616 3.901 0 1.412.539 2.824 1.616 3.901 1.078 1.078 2.49 1.617 3.901 1.617 1.412 0 2.824-.54 3.901-1.617 1.078-1.077 1.617-2.489 1.617-3.9 0-1.413-.539-2.824-1.617-3.902-1.077-1.077-2.489-1.616-3.9-1.616zm-35.09-5.01H-.524l.073 1.532c.074.95.463 1.782 1.07 2.388.598.6 1.411.982 2.357 1.037L4 4.564h7.832L.496 15.9l.058 1.22c.059.972.438 1.797 1.037 2.4.6.601 1.423.983 2.388 1.045l1.025.049h15.58l-.073-1.532c-.078-.963-.463-1.79-1.064-2.392-.597-.596-1.408-.974-2.362-1.032l-1.024-.049H8.228l11.336-11.34-.058-1.221c-.045-.965-.425-1.796-1.029-2.4-.605-.605-1.438-.985-2.403-1.033L15.056-.44zm66.163 0c-2.35 0-4.474.953-6.015 2.485C73.662.507 71.532-.44 69.187-.44c-1.626 0-3.145.453-4.435 1.242C63.61-.133 61.48-.61 60.666-.385v21.022l1.534-.073c.974-.064 1.812-.448 2.417-1.052.6-.6.974-1.42 1.011-2.385l.048-1.013V9.092l.048-.993c.036-.666.12-1.261.427-1.79.609-1.047 1.74-1.745 3.036-1.745 1.307.005 2.445.709 3.055 1.757.307.523.39 1.122.42 1.784l.048.993v7.022l.048 1.012c.059.96.442 1.786 1.045 2.39.601.6 1.425.984 2.381 1.042l1.53.073V9.098l.048-.993c.036-.655.119-1.265.425-1.789.61-1.042 1.74-1.746 3.038-1.746 1.298 0 2.434.71 3.043 1.757.3.522.384 1.133.421 1.782l.047.983v7.022l.048 1.012c.06.963.442 1.79 1.045 2.394.602.601 1.426.983 2.383 1.039l1.529.072V8.081c0-2.354-.954-4.484-2.496-6.025C85.703.513 83.572-.44 81.22-.44z" transform="translate(15 52)"/>
        </g>
    </g>
</svg>
