<svg xmlns="http://www.w3.org/2000/svg" width="24" height="22" viewBox="0 0 24 22">
    <g>
        <path d="M22 0H2C.896 0 0 .896 0 2v12c0 1.104.896 2 2 2h8l-1 4H6c-.367 0-.667.3-.667.667 0 .366.3.666.667.666h12c.367 0 .667-.3.667-.666 0-.367-.3-.667-.667-.667h-3l-1-4h8c1.104 0 2-.896 2-2V2c0-1.104-.896-2-2-2zM10.375 20l.667-2.667h1.916L13.625 20h-3.25zm12.292-6c0 .367-.3.667-.667.667H2c-.367 0-.667-.3-.667-.667V2c0-.367.3-.667.667-.667h20c.367 0 .667.3.667.667v12z"/>
        <path d="M12 4C9.79 4 8 5.79 8 8s1.79 4 4 4 4-1.79 4-4-1.79-4-4-4zm1.866 4.387l-2.839 1.63c-.254.141-.575-.041-.575-.34V6.323c0-.297.319-.481.575-.34l2.84 1.727c.264.148.264.53 0 .677z"/>
    </g>
</svg>
