<svg xmlns="http://www.w3.org/2000/svg" xmlns:xlink="http://www.w3.org/1999/xlink" width="64" height="64" viewBox="0 0 64 64">
    <defs>
        <filter id="prefix__a" width="117.2%" height="117.2%" x="-8.6%" y="-5.5%" filterUnits="objectBoundingBox">
            <feOffset dy="2" in="SourceAlpha" result="shadowOffsetOuter1"/>
            <feGaussianBlur in="shadowOffsetOuter1" result="shadowBlurOuter1" stdDeviation="1.5"/>
            <feColorMatrix in="shadowBlurOuter1" values="0 0 0 0 0 0 0 0 0 0 0 0 0 0 0 0 0 0 0.4 0"/>
        </filter>
        <circle id="prefix__b" cx="32" cy="32" r="32"/>
    </defs>
    <g fill="none" fill-rule="evenodd">
        <use fill="#000" filter="url(#prefix__a)" xlink:href="#prefix__b"/>
        <use fill="#00DCF7" xlink:href="#prefix__b"/>
        <g fill="#FFF">
            <path d="M16.393 38.433l-.492-.358c-1.926-1.4-2.353-4.095-.954-6.021l13.55-17.868c1.4-1.926 4.096-2.353 6.022-.954l.492.357c1.926 1.4 2.353 4.096.954 6.022l-13.55 17.868c-1.4 1.926-4.096 2.353-6.022.954M11.16 31.6l2.967-3.86c1.604-1.89 2.196-4.133.797-6.06l-5.89-7.494c-1.399-1.926-4.094-2.353-6.02-.954l-.492.357c-1.927 1.4-2.354 4.096-.954 6.022l6.187 7.885L11.16 31.6zM24.631 6.142c0 3.239-2.625 5.865-5.865 5.865-3.239 0-5.865-2.626-5.865-5.865 0-3.24 2.626-5.865 5.865-5.865 3.24 0 5.865 2.625 5.865 5.865" transform="translate(13 12)"/>
        </g>
    </g>
</svg>
