<svg xmlns="http://www.w3.org/2000/svg" width="24" height="20" viewBox="0 0 24 20">
    <path fill-opacity=".87" d="M12 2.4c-2.318.003-4.197 1.882-4.2 4.2 0 .331.269.6.6.6.331 0 .6-.269.6-.6.002-1.656 1.344-2.998 3-3 .331 0 .6-.269.6-.6 0-.331-.269-.6-.6-.6zM12 0C8.14 0 5.396 3.133 5.4 6.609c0 1.595.58 3.135 1.633 4.333C7.997 12.037 8.92 13.826 9 14.4l.002 2.82c0 .118.035.233.101.33l.919 1.382c.111.167.298.268.499.268h2.957c.201 0 .389-.1.5-.268l.919-1.382c.065-.098.1-.213.1-.331L15 14.4c.084-.59 1.012-2.37 1.966-3.458 1.706-1.948 2.115-4.714 1.044-7.072C16.94 1.512 14.59-.002 12 0zm1.798 17.037l-.642.963h-2.314l-.64-.963V16.8H13.8l-.001.237zM13.8 15.6h-3.6l-.002-1.2H13.8v1.2zm2.265-5.45c-.525.599-1.362 1.804-1.896 3.05H9.833c-.535-1.246-1.372-2.451-1.897-3.05C7.075 9.169 6.6 7.907 6.602 6.6 6.596 3.713 8.866 1.2 12 1.2c2.978 0 5.4 2.422 5.4 5.4 0 1.306-.475 2.568-1.336 3.55h.001zM3.6 6.6c0-.331-.269-.6-.6-.6H.6c-.331 0-.6.269-.6.6 0 .331.269.6.6.6H3c.331 0 .6-.269.6-.6zm16.2-4.2c.093 0 .185-.022.268-.063l2.4-1.2c.297-.149.417-.51.269-.805-.149-.297-.51-.417-.805-.269l-2.4 1.2c-.25.125-.38.404-.316.675.064.27.306.462.584.462zM23.4 6H21c-.331 0-.6.269-.6.6 0 .331.269.6.6.6h2.4c.331 0 .6-.269.6-.6 0-.331-.269-.6-.6-.6zM4.469 1.263l-2.4-1.2c-.297-.148-.657-.028-.806.269-.148.296-.028.656.269.805l2.4 1.2c.083.041.175.063.268.063.278 0 .52-.191.584-.462.064-.27-.067-.55-.316-.675zm18 10.8l-2.4-1.2c-.297-.148-.658-.028-.806.269-.148.296-.028.657.268.805l2.4 1.2c.297.148.658.028.806-.268.148-.297.028-.657-.268-.806zM4.2 10.8c-.093 0-.185.022-.268.063l-2.4 1.2c-.192.096-.318.287-.331.501-.013.214.09.419.268.537.18.118.408.132.6.036l2.4-1.2c.249-.124.38-.404.316-.675S4.479 10.8 4.2 10.8z"/>
</svg>
