<svg xmlns="http://www.w3.org/2000/svg" width="140" height="37" viewBox="0 0 140 37">
    <g fill="none" fill-rule="evenodd">
        <path fill="#000" d="M65.918 9.067c0 .34-.097.68-.194.972l-7.385 18.122a3.861 3.861 0 0 1-3.596 2.43c-1.652 0-3.06-.972-3.644-2.43l-7.384-18.17c-.098-.292-.195-.584-.195-.924 0-1.409 1.118-2.526 2.478-2.526 1.069 0 2.04.68 2.38 1.603l6.317 16.325L61.01 8.144c.34-.923 1.312-1.603 2.38-1.603a2.509 2.509 0 0 1 2.527 2.526M92.325 28.016v-18.9a2.592 2.592 0 0 1 2.574-2.575c1.36 0 2.527 1.166 2.527 2.575v18.9a2.592 2.592 0 0 1-2.575 2.574c-1.36 0-2.526-1.165-2.526-2.574M79.353 6.25c3.304 0 5.685 1.02 7.434 2.526.486.388.826 1.069.826 1.749a2.28 2.28 0 0 1-2.284 2.283c-.583 0-1.117-.194-1.506-.534-1.214-1.02-2.575-1.506-4.227-1.506-4.275 0-7.093 3.206-7.093 7.774 0 4.567 2.818 7.822 7.093 7.822 1.652 0 3.013-.486 4.227-1.506.389-.34.923-.535 1.457-.535 1.313 0 2.333 1.02 2.333 2.284 0 .68-.34 1.36-.826 1.749-1.75 1.506-4.13 2.526-7.434 2.526-7.142 0-12.146-5.199-12.146-12.34 0-7.094 5.004-12.293 12.146-12.293M115.76 28.356c0 .972-.534 1.652-1.36 1.943-.826.34-1.943.583-3.352.583-3.936 0-6.025-2.138-6.025-6.024V11.302h-1.943c-1.215 0-2.235-1.02-2.235-2.235 0-1.214 1.02-2.235 2.235-2.235h1.943v-4.13a2.592 2.592 0 0 1 2.575-2.574c1.36 0 2.526 1.166 2.526 2.575v4.13h2.818c1.215 0 2.236 1.02 2.236 2.234 0 1.215-1.02 2.235-2.236 2.235h-2.818v12.292c0 1.604.778 2.77 2.236 2.77.582 0 .874-.146 1.263-.146 1.312 0 2.137.923 2.137 2.138M134.325 24.138v-1.913c-1.166-1.604-3.352-3.246-5.587-3.246-2.867 0-5.004 1.652-5.004 4.227 0 2.526 2.137 4.178 5.004 4.178 2.235 0 4.421-1.642 5.587-3.246m5.102-9.386v13.264a2.592 2.592 0 0 1-2.575 2.575c-1.36 0-2.527-1.166-2.527-2.575v-.243c-1.75 1.992-4.47 3.109-7.58 3.109-3.838 0-8.161-2.575-8.161-7.773 0-5.394 4.323-7.628 8.162-7.628 3.158 0 5.879 1.02 7.579 3.012v-3.498c0-2.721-2.235-4.373-5.49-4.373-1.992 0-3.741.535-5.49 1.75a2.2 2.2 0 0 1-1.166.34 2.053 2.053 0 0 1-2.04-2.041c0-.68.388-1.312.874-1.652 2.575-1.895 5.49-2.77 8.648-2.77 5.199 0 9.766 2.187 9.766 8.503"/>
        <path fill="#00DCF7" d="M27.534 36.415H8.165A8.165 8.165 0 0 1 0 28.25V8.88A8.165 8.165 0 0 1 8.165.716h19.37A8.165 8.165 0 0 1 35.7 8.88V28.25a8.165 8.165 0 0 1-8.166 8.165"/>
        <path fill="#FFF" d="M16.324 30.565l-.316-.23a2.771 2.771 0 0 1-.613-3.87l8.71-11.487a2.771 2.771 0 0 1 3.872-.613l.316.23a2.771 2.771 0 0 1 .613 3.87l-8.711 11.487a2.771 2.771 0 0 1-3.871.613M12.96 26.173l1.907-2.482c1.032-1.215 1.412-2.657.513-3.895l-3.786-4.818a2.771 2.771 0 0 0-3.871-.613l-.316.23a2.771 2.771 0 0 0-.613 3.87l3.977 5.07 2.19 2.638zM21.62 9.807a3.77 3.77 0 1 1-7.54 0 3.77 3.77 0 0 1 7.54 0"/>
    </g>
</svg>
