<svg xmlns="http://www.w3.org/2000/svg" width="24" height="24" viewBox="0 0 24 24">
    <path d="M17.253 4.126c-1.062 0-2.019.64-2.425 1.62-.407.981-.182 2.11.569 2.861.75.75 1.88.975 2.86.57.98-.407 1.62-1.364 1.62-2.426 0-1.45-1.175-2.624-2.624-2.625zm0 3.75c-.455 0-.865-.274-1.04-.694-.174-.42-.078-.905.244-1.226.322-.322.806-.418 1.226-.244.42.174.695.584.695 1.04-.001.62-.504 1.123-1.125 1.124zM23.68.904c-.055-.256-.328-.528-.584-.582C21.592 0 20.413 0 19.24 0c-4.837 0-7.738 2.587-9.903 6H4.454c-.764 0-1.668.558-2.01 1.241L.128 11.872c-.072.158-.112.329-.118.502 0 .621.504 1.125 1.125 1.125h4.871c2.485 0 4.5 2.014 4.5 4.5v4.874c0 .621.503 1.125 1.124 1.125.174-.007.344-.047.502-.118l4.627-2.316C17.442 21.223 18 20.32 18 19.556v-4.895c3.402-2.17 6-5.081 6-9.894.003-1.179.003-2.358-.32-3.863zM1.742 12l2.043-4.087c.087-.173.475-.413.669-.413h3.988L6.212 12l.004.021C6.145 12.018 2.86 12 1.742 12zM16.5 19.556c0 .194-.238.58-.412.667l-4.083 2.043c0-1.12-.019-4.409-.021-4.482l.017.003c1.5-.742 3.178-1.575 4.493-2.229h.006v3.998zm-4.785-3.305c-.583-1.898-2.069-3.383-3.967-3.964C10.187 7.413 12.425 1.5 19.24 1.5c.992 0 1.936 0 3.066.196.2 1.143.197 2.08.193 3.07 0 6.796-5.952 9.07-10.784 11.485zm-6.913-1.252c-2.254 0-4.707 1.844-4.794 7.501H0V24h1.5v-.01c8.045-.157 8.667-5.393 6.272-7.8-.7-.703-1.808-1.191-2.97-1.191zm2.48 5.128c-.602 1.46-2.702 2.317-5.783 2.37.003-.167-.052-5.996 3.303-5.996.707 0 1.458.296 1.913.752.6.604 1.003 1.816.567 2.874z"/>
</svg>
