<svg xmlns="http://www.w3.org/2000/svg" width="21" height="24" viewBox="0 0 21 24">
    <path d="M15 16.5h-.22c-.57 0-1.125.136-1.664.319-1.697.575-3.537.575-5.233 0-.539-.183-1.092-.318-1.66-.318H6c-3.313 0-6 2.686-6 5.999 0 .828.672 1.5 1.5 1.5h18c.828 0 1.5-.672 1.5-1.5 0-3.314-2.686-6-6-6zm-13.5 6c.003-2.484 2.016-4.497 4.5-4.5h.222c.325 0 .7.076 1.18.239 2.008.68 4.186.68 6.195 0 .483-.164.859-.24 1.183-.24H15c2.484.003 4.497 2.016 4.5 4.5l-18 .001zm.75-12c.414 0 .75-.336.75-.75V9c0-4.135 3.365-7.5 7.5-7.5S18 4.865 18 9v.75c-.002 2.07-1.68 3.748-3.75 3.75h-1.5c0-.828-.672-1.5-1.5-1.5h-1.5c-.828 0-1.5.672-1.5 1.5s.672 1.5 1.5 1.5h4.5c2.898-.004 5.246-2.352 5.25-5.25V9c0-4.963-4.037-9-9-9s-9 4.037-9 9v.75c0 .414.336.75.75.75zm8.25-6c1.776-.008 3.388 1.034 4.112 2.656.723 1.621.42 3.517-.773 4.833 0 .004.006.007.008.011h.403c.774-.002 1.492-.402 1.9-1.058.21-.613.35-1.259.35-1.942 0-3.314-2.686-6-6-6s-6 2.686-6 6c0 1.895.895 3.563 2.266 4.663-.002-.055-.016-.107-.016-.163.003-.528.148-1.046.419-1.5-1.2-1.314-1.507-3.213-.785-4.838C7.106 5.536 8.72 4.492 10.5 4.5z"/>
</svg>
